HIERARCHY
ROOT joint_0
{
	OFFSET 0.000000 0.000000 0.000000
	CHANNELS 6 Xposition Yposition Zposition Zrotation Yrotation Xrotation 
	JOINT joint_1
	{
		OFFSET 6.579712 -2.778931 100.531982
		CHANNELS 3 Zrotation Yrotation Xrotation
		JOINT joint_2
		{
			OFFSET -3.313232 -1.302856 91.974976
			CHANNELS 3 Zrotation Yrotation Xrotation
			JOINT joint_3
			{
				OFFSET -3.421509 -1.641846 91.864014
				CHANNELS 3 Zrotation Yrotation Xrotation
				JOINT joint_4
				{
					OFFSET 7.697388 -4.642578 123.278931
					CHANNELS 3 Zrotation Yrotation Xrotation
					JOINT joint_5
					{
						OFFSET 24.842529 -5.941528 79.695068
						CHANNELS 3 Zrotation Yrotation Xrotation
						End Site
						{
							OFFSET 0.000000 0.000000 0.000000
						}
					}
				}
				JOINT joint_6
				{
					OFFSET -0.159668 -29.112976 68.364014
					CHANNELS 3 Zrotation Yrotation Xrotation
					JOINT joint_7
					{
						OFFSET -18.356079 -115.987061 -20.069092
						CHANNELS 3 Zrotation Yrotation Xrotation
						JOINT joint_8
						{
							OFFSET 31.719482 -11.733276 -267.170898
							CHANNELS 3 Zrotation Yrotation Xrotation
							JOINT joint_9
							{
								OFFSET 29.329956 -5.879517 -234.654053
								CHANNELS 3 Zrotation Yrotation Xrotation
								End Site
								{
									OFFSET 0.000000 0.000000 0.000000
								}
							}
						}
					}
				}
				JOINT joint_10
				{
					OFFSET 8.802979 23.897949 69.798950
					CHANNELS 3 Zrotation Yrotation Xrotation
					JOINT joint_11
					{
						OFFSET 21.159058 115.524292 -19.981934
						CHANNELS 3 Zrotation Yrotation Xrotation
						JOINT joint_12
						{
							OFFSET 18.809204 5.403442 -268.593018
							CHANNELS 3 Zrotation Yrotation Xrotation
							JOINT joint_13
							{
								OFFSET 20.807861 0.421265 -235.639038
								CHANNELS 3 Zrotation Yrotation Xrotation
								End Site
								{
									OFFSET 0.000000 0.000000 0.000000
								}
							}
						}
					}
				}
			}
		}
	}
	JOINT joint_14
	{
		OFFSET -9.713379 -79.513916 -99.348022
		CHANNELS 3 Zrotation Yrotation Xrotation
		JOINT joint_15
		{
			OFFSET -40.607788 -6.518372 -502.938019
			CHANNELS 3 Zrotation Yrotation Xrotation
			JOINT joint_16
			{
				OFFSET -19.807617 -7.437378 -399.590012
				CHANNELS 3 Zrotation Yrotation Xrotation
				JOINT joint_17
				{
					OFFSET 171.701660 -44.751282 -77.782000
					CHANNELS 3 Zrotation Yrotation Xrotation
					End Site
					{
						OFFSET 0.000000 0.000000 0.000000
					}
				}
			}
		}
	}
	JOINT joint_18
	{
		OFFSET 17.854858 79.618652 -98.128052
		CHANNELS 3 Zrotation Yrotation Xrotation
		JOINT joint_19
		{
			OFFSET -24.848877 16.861816 -503.722992
			CHANNELS 3 Zrotation Yrotation Xrotation
			JOINT joint_20
			{
				OFFSET -30.162476 14.470093 -398.750008
				CHANNELS 3 Zrotation Yrotation Xrotation
				JOINT joint_21
				{
					OFFSET 176.096680 -10.987549 -80.021000
					CHANNELS 3 Zrotation Yrotation Xrotation
					End Site
					{
						OFFSET 0.000000 0.000000 0.000000
					}
				}
			}
		}
	}
}
MOTION
Frames: 15
Frame Time: 0.016667
-1815.480469 887.166382 1096.461060 14.664101 1.070864 -0.897701 -0.149846 -2.651183 0.667239 -0.100254 0.415484 -0.180350 -0.107456 -0.551206 0.076051 0.368418 -0.192424 -1.262079 0.000000 0.000000 0.000000 -0.136247 2.004993 0.408262 -0.105558 2.082888 -0.104762 -0.194263 -0.386659 -1.630310 0.000000 0.000000 0.000000 0.917322 0.863511 1.053397 -0.141620 1.291932 -2.285997 0.152381 -1.761432 2.551102 0.000000 0.000000 0.000000 1.966933 -0.412797 -0.684034 1.920896 -0.877792 0.031999 1.887682 -0.685482 0.679292 0.000000 0.000000 0.000000 -1.921658 0.535658 2.624846 -1.804733 -1.313861 -0.311545 -1.731476 -0.689091 -0.827421 0.000000 0.000000 0.000000 
-1815.384521 887.208923 1096.454956 14.650846 1.084242 -0.895887 -0.150734 -2.650888 0.668954 -0.101493 0.414499 -0.182372 -0.108553 -0.550442 0.077468 0.366926 -0.191338 -1.256703 0.000000 0.000000 0.000000 -0.143104 2.008105 0.410468 -0.106281 2.085819 -0.108193 -0.193023 -0.400574 -1.624985 0.000000 0.000000 0.000000 0.921279 0.860278 1.052315 -0.142223 1.288996 -2.292832 0.151578 -1.772610 2.543866 0.000000 0.000000 0.000000 1.971621 -0.422900 -0.687273 1.925498 -0.878728 0.029722 1.891883 -0.680378 0.682543 0.000000 0.000000 0.000000 -1.916920 0.529179 2.619292 -1.800491 -1.315430 -0.306714 -1.726973 -0.689697 -0.825411 0.000000 0.000000 0.000000 
-1815.287842 887.247375 1096.446045 14.637909 1.096504 -0.894632 -0.151643 -2.648973 0.670655 -0.102764 0.412466 -0.183033 -0.109748 -0.549165 0.077781 0.365444 -0.192330 -1.251887 0.000000 0.000000 0.000000 -0.149465 2.010064 0.413524 -0.106696 2.087417 -0.109411 -0.192327 -0.409738 -1.622315 0.000000 0.000000 0.000000 0.923104 0.856749 1.050085 -0.142699 1.285705 -2.298378 0.150831 -1.782597 2.536655 0.000000 0.000000 0.000000 1.976257 -0.431854 -0.689961 1.930031 -0.879400 0.028161 1.896080 -0.675835 0.685646 0.000000 0.000000 0.000000 -1.912659 0.523690 2.614890 -1.796639 -1.316527 -0.302319 -1.722911 -0.690584 -0.823618 0.000000 0.000000 0.000000 
-1815.186401 887.282410 1096.435059 14.625268 1.109093 -0.893814 -0.153995 -2.651080 0.672622 -0.105269 0.413925 -0.183109 -0.112298 -0.549986 0.077784 0.364531 -0.193643 -1.249069 0.000000 0.000000 0.000000 -0.149423 2.011234 0.417001 -0.106648 2.088701 -0.106667 -0.192568 -0.411220 -1.624381 0.000000 0.000000 0.000000 0.926172 0.854858 1.044324 -0.142801 1.282390 -2.299237 0.150099 -1.790793 2.528549 0.000000 0.000000 0.000000 1.980815 -0.440961 -0.692486 1.934428 -0.880055 0.027445 1.900190 -0.671039 0.688774 0.000000 0.000000 0.000000 -1.908766 0.517640 2.612077 -1.792924 -1.316918 -0.299631 -1.719125 -0.691007 -0.821922 0.000000 0.000000 0.000000 
-1815.084717 887.314331 1096.422974 14.612312 1.121144 -0.893107 -0.156678 -2.652622 0.674965 -0.108169 0.414403 -0.183842 -0.115162 -0.549973 0.078446 0.364043 -0.195568 -1.247826 0.000000 0.000000 0.000000 -0.146634 2.011197 0.421230 -0.106362 2.089041 -0.102072 -0.193375 -0.408937 -1.629564 0.000000 0.000000 0.000000 0.928853 0.853090 1.036377 -0.142731 1.278494 -2.297928 0.149378 -1.798427 2.520144 0.000000 0.000000 0.000000 1.985634 -0.449883 -0.695290 1.938968 -0.880009 0.027834 1.904523 -0.666536 0.691927 0.000000 0.000000 0.000000 -1.904947 0.512055 2.609861 -1.789216 -1.317232 -0.297623 -1.715369 -0.690430 -0.820178 0.000000 0.000000 0.000000 
-1814.987793 887.342041 1096.411987 14.600495 1.132514 -0.892359 -0.158875 -2.652858 0.676605 -0.110581 0.414904 -0.184003 -0.117585 -0.549996 0.078445 0.363065 -0.198058 -1.245081 0.000000 0.000000 0.000000 -0.146858 2.010304 0.426622 -0.106200 2.088441 -0.098949 -0.194083 -0.407323 -1.634200 0.000000 0.000000 0.000000 0.929144 0.849936 1.028777 -0.142738 1.273977 -2.298249 0.148987 -1.803243 2.515194 0.000000 0.000000 0.000000 1.990100 -0.459132 -0.697620 1.943206 -0.878192 0.027725 1.908558 -0.662330 0.694868 0.000000 0.000000 0.000000 -1.901509 0.506028 2.607670 -1.785836 -1.315907 -0.295261 -1.712003 -0.690492 -0.818650 0.000000 0.000000 0.000000 
-1814.898315 887.364319 1096.402954 14.589142 1.142101 -0.891119 -0.160588 -2.649375 0.677133 -0.112629 0.414117 -0.184507 -0.119570 -0.548958 0.079048 0.362193 -0.198978 -1.242324 0.000000 0.000000 0.000000 -0.148634 2.007798 0.433433 -0.106303 2.086667 -0.098612 -0.194492 -0.408558 -1.637457 0.000000 0.000000 0.000000 0.927939 0.844296 1.021713 -0.142895 1.267837 -2.301429 0.149106 -1.803350 2.515400 0.000000 0.000000 0.000000 1.994242 -0.468229 -0.699723 1.947172 -0.873442 0.026758 1.912310 -0.658331 0.697628 0.000000 0.000000 0.000000 -1.897900 0.500753 2.604978 -1.782316 -1.313386 -0.292629 -1.708534 -0.690355 -0.817064 0.000000 0.000000 0.000000 
-1814.814453 887.382019 1096.395020 14.578689 1.151057 -0.889680 -0.162120 -2.644729 0.677270 -0.114525 0.413636 -0.185284 -0.121408 -0.547862 0.079316 0.360954 -0.199183 -1.238149 0.000000 0.000000 0.000000 -0.151771 2.004260 0.441663 -0.106539 2.084094 -0.099680 -0.194846 -0.410946 -1.640620 0.000000 0.000000 0.000000 0.925904 0.837243 1.015115 -0.143096 1.260715 -2.305766 0.149504 -1.800596 2.518250 0.000000 0.000000 0.000000 1.998094 -0.477744 -0.701672 1.950841 -0.867028 0.025743 1.915796 -0.654660 0.700182 0.000000 0.000000 0.000000 -1.894746 0.494916 2.602026 -1.779230 -1.309188 -0.289367 -1.705535 -0.690766 -0.815725 0.000000 0.000000 0.000000 
-1814.735229 887.397705 1096.387939 14.568118 1.159182 -0.888797 -0.163401 -2.639148 0.676804 -0.116147 0.413155 -0.185309 -0.123018 -0.546731 0.079062 0.359862 -0.199833 -1.234576 0.000000 0.000000 0.000000 -0.156519 2.000243 0.448961 -0.106828 2.080757 -0.101595 -0.195076 -0.413827 -1.643008 0.000000 0.000000 0.000000 0.924427 0.830681 1.009626 -0.143318 1.254127 -2.309767 0.149598 -1.800858 2.518313 0.000000 0.000000 0.000000 2.001781 -0.486464 -0.703290 1.954305 -0.860925 0.025613 1.919160 -0.651881 0.702445 0.000000 0.000000 0.000000 -1.891493 0.489897 2.599864 -1.775984 -1.305022 -0.286649 -1.702445 -0.691950 -0.814394 0.000000 0.000000 0.000000 
-1814.660889 887.412354 1096.381958 14.556891 1.167021 -0.888848 -0.164209 -2.632691 0.676263 -0.117319 0.412041 -0.185178 -0.124164 -0.546004 0.079284 0.358891 -0.198957 -1.231017 0.000000 0.000000 0.000000 -0.163841 1.996208 0.453416 -0.107089 2.076521 -0.103667 -0.195199 -0.417400 -1.644808 0.000000 0.000000 0.000000 0.922432 0.826095 1.005100 -0.143565 1.249561 -2.312616 0.149025 -1.809163 2.512665 0.000000 0.000000 0.000000 2.005531 -0.494698 -0.704226 1.957828 -0.855824 0.026302 1.922653 -0.650097 0.704506 0.000000 0.000000 0.000000 -1.888086 0.484852 2.598883 -1.772466 -1.300416 -0.284537 -1.699191 -0.694260 -0.813060 0.000000 0.000000 0.000000 
-1814.592163 887.424622 1096.378052 14.545935 1.174315 -0.889597 -0.164635 -2.625363 0.675333 -0.118088 0.410372 -0.183964 -0.124962 -0.544298 0.078423 0.357835 -0.198929 -1.227390 0.000000 0.000000 0.000000 -0.173454 1.991639 0.457560 -0.107450 2.071492 -0.106838 -0.195213 -0.422484 -1.646209 0.000000 0.000000 0.000000 0.919574 0.821678 1.001363 -0.143767 1.245244 -2.314257 0.148095 -1.820509 2.503399 0.000000 0.000000 0.000000 2.008875 -0.502450 -0.704640 1.960912 -0.851317 0.027973 1.925779 -0.648550 0.706335 0.000000 0.000000 0.000000 -1.884936 0.479945 2.598680 -1.769132 -1.295375 -0.282543 -1.696174 -0.697536 -0.811893 0.000000 0.000000 0.000000 
-1814.529297 887.435425 1096.374023 14.535771 1.181434 -0.889796 -0.164255 -2.618966 0.673397 -0.117999 0.409501 -0.183596 -0.124859 -0.543721 0.078748 0.356908 -0.196522 -1.223617 0.000000 0.000000 0.000000 -0.185423 1.987766 0.462093 -0.107991 2.067087 -0.111540 -0.195198 -0.426553 -1.647115 0.000000 0.000000 0.000000 0.914440 0.817602 0.996041 -0.143919 1.241261 -2.315261 0.147339 -1.830498 2.496137 0.000000 0.000000 0.000000 2.012065 -0.510274 -0.705786 1.963748 -0.846467 0.030107 1.928729 -0.648175 0.707778 0.000000 0.000000 0.000000 -1.881769 0.475117 2.598081 -1.765807 -1.290923 -0.280944 -1.693169 -0.700959 -0.810742 0.000000 0.000000 0.000000 
-1814.472778 887.443420 1096.369995 14.527532 1.189162 -0.889085 -0.164644 -2.615261 0.669230 -0.118464 0.409793 -0.181967 -0.125425 -0.542430 0.077378 0.355779 -0.195163 -1.219425 0.000000 0.000000 0.000000 -0.194071 1.983956 0.469059 -0.108787 2.064034 -0.118012 -0.195214 -0.430096 -1.648122 0.000000 0.000000 0.000000 0.912009 0.812718 0.990753 -0.144044 1.236027 -2.316352 0.146935 -1.836969 2.492461 0.000000 0.000000 0.000000 2.014749 -0.519613 -0.708157 1.965903 -0.840029 0.033045 1.931115 -0.648844 0.708692 0.000000 0.000000 0.000000 -1.879034 0.469308 2.596807 -1.762932 -1.287110 -0.279746 -1.690615 -0.705041 -0.809835 0.000000 0.000000 0.000000 
-1814.424072 887.449219 1096.364990 14.519701 1.195950 -0.888068 -0.163904 -2.609542 0.664347 -0.117881 0.408592 -0.180993 -0.124871 -0.541776 0.076958 0.354836 -0.191884 -1.215394 0.000000 0.000000 0.000000 -0.205020 1.981082 0.475928 -0.109689 2.061650 -0.125274 -0.195175 -0.433962 -1.648821 0.000000 0.000000 0.000000 0.906958 0.807883 0.984120 -0.144107 1.230938 -2.316765 0.146660 -1.842099 2.490060 0.000000 0.000000 0.000000 2.017161 -0.528447 -0.710983 1.967711 -0.833033 0.036442 1.933238 -0.650903 0.709123 0.000000 0.000000 0.000000 -1.876307 0.464303 2.595193 -1.760123 -1.283839 -0.278625 -1.688108 -0.709252 -0.808959 0.000000 0.000000 0.000000 
-1814.375977 887.453674 1096.359985 14.512952 1.202395 -0.887660 -0.163274 -2.605087 0.659879 -0.117352 0.407363 -0.179668 -0.124393 -0.540580 0.076058 0.353718 -0.189785 -1.211072 0.000000 0.000000 0.000000 -0.215739 1.978301 0.483379 -0.110529 2.059405 -0.132055 -0.195233 -0.436598 -1.649903 0.000000 0.000000 0.000000 0.903257 0.803558 0.977822 -0.144210 1.226272 -2.317718 0.146506 -1.845968 2.489012 0.000000 0.000000 0.000000 2.019378 -0.535713 -0.712492 1.969560 -0.828553 0.038546 1.935268 -0.652116 0.709732 0.000000 0.000000 0.000000 -1.873960 0.460119 2.594440 -1.757690 -1.281954 -0.277674 -1.685879 -0.712496 -0.808148 0.000000 0.000000 0.000000 
